# xmcd CD database file
#
# Track frame offsets:
#	150
#	17291
#	32043
#	49649
#	71490
#	83439
#	94704
#	108597
#	124870
#	142086
#	152768
#	165010
#	188120
#
# Disc length: 2987 seconds
#
# Revision: 0
# Processed by: cddbd v1.4PL0 Copyright (c) Steve Scherf et al.
# Submitted via: CDex 1.50Beta7
#
DISCID=970ba90d
DTITLE=Eve Selis - Long Road Home
DYEAR=2000
DGENRE=Country
TTITLE0=Long Road Home
TTITLE1=What I Mean To Say
TTITLE2=Just 3 Words
TTITLE3=The Lucky One
TTITLE4=Happy To Be With You
TTITLE5=Folsom Prison Blues
TTITLE6=Hearts On Fire
TTITLE7=Sweet Companion
TTITLE8=Can't Get You Out Of My Mind
TTITLE9=Dog House
TTITLE10=Hit The Road
TTITLE11=Christmas In Washongton
TTITLE12=Far, Far From Home
EXTD=YEAR: 2000
EXTT0=
EXTT1=
EXTT2=
EXTT3=
EXTT4=
EXTT5=
EXTT6=
EXTT7=
EXTT8=
EXTT9=
EXTT10=
EXTT11=
EXTT12=
PLAYORDER=
